<?xml version="1.0" standalone="no"?>
<!DOCTYPE svg PUBLIC "-//W3C//DTD SVG 20010904//EN"
 "http://www.w3.org/TR/2001/REC-SVG-20010904/DTD/svg10.dtd">
<svg version="1.0" xmlns="http://www.w3.org/2000/svg"
 width="536.000000pt" height="536.000000pt" viewBox="0 0 536.000000 536.000000"
 preserveAspectRatio="xMidYMid meet">
<metadata>
Created by potrace 1.11, written by Peter Selinger 2001-2013
</metadata>
<g transform="translate(0.000000,536.000000) scale(0.100000,-0.100000)"
fill="#000000" stroke="none">
<path d="M2395 5230 c-238 -24 -594 -114 -768 -194 -29 -13 -83 -38 -122 -56
-115 -52 -155 -74 -252 -134 -581 -359 -995 -916 -1158 -1556 -59 -231 -69
-315 -69 -610 -1 -223 3 -294 17 -375 33 -178 107 -453 147 -540 5 -11 19 -42
31 -70 151 -349 390 -678 659 -910 205 -176 384 -295 601 -398 322 -154 589
-228 943 -262 200 -19 301 -19 496 0 294 30 553 94 796 198 363 156 621 333
891 610 302 311 519 694 628 1112 113 432 109 900 -12 1310 -85 286 -167 464
-328 710 -97 149 -177 246 -325 395 -238 240 -528 436 -835 564 -49 20 -99 41
-110 46 -119 50 -348 109 -565 145 -109 19 -537 28 -665 15z m505 -200 c706
-63 1336 -414 1767 -985 96 -128 211 -330 278 -490 63 -152 120 -358 152 -550
25 -153 25 -507 0 -655 -55 -322 -157 -607 -311 -865 -54 -92 -226 -314 -314
-407 -191 -202 -462 -397 -719 -520 -67 -32 -126 -58 -130 -58 -4 0 -20 -6
-34 -14 -86 -45 -355 -115 -559 -147 -189 -29 -514 -32 -690 -6 -427 64 -730
178 -1071 405 -469 311 -834 814 -968 1332 -117 451 -110 827 23 1302 45 160
172 419 295 601 282 419 701 741 1201 924 316 116 717 165 1080 133z"/>
<path d="M2605 4333 c-114 -7 -337 -44 -433 -72 -318 -92 -643 -284 -855 -505
-111 -115 -108 -102 -41 -198 135 -195 357 -439 546 -602 43 -36 82 -66 88
-66 5 0 29 6 52 14 189 63 622 111 1071 119 l129 2 52 95 c29 52 70 124 90
160 54 96 155 306 210 438 57 136 130 399 119 429 -2 6 -12 13 -21 16 -9 3
-57 20 -107 37 -272 96 -640 150 -900 133z"/>
<path d="M3776 4283 c-3 -10 -21 -76 -42 -148 -143 -506 -378 -1057 -624
-1465 -271 -449 -607 -845 -962 -1137 -141 -116 -249 -192 -452 -321 l-39 -24
39 -24 c113 -69 323 -153 481 -193 281 -71 553 -77 836 -21 98 20 260 67 322
95 17 7 41 16 54 20 95 29 348 188 472 296 210 184 351 367 472 614 86 173
143 361 173 565 23 159 16 472 -14 615 -69 325 -201 607 -397 850 -97 120
-279 295 -306 295 -4 0 -10 -8 -13 -17z"/>
<path d="M1020 3618 c-97 -149 -180 -403 -211 -648 -15 -112 -5 -422 16 -520
40 -191 77 -314 133 -445 111 -257 330 -538 545 -700 l78 -58 32 18 c248 144
522 361 762 600 145 145 285 301 285 319 0 6 -84 61 -186 121 -102 61 -220
134 -262 164 -98 70 -219 159 -246 181 -12 10 -61 52 -111 93 -148 123 -365
345 -495 506 -59 73 -170 231 -230 325 -31 49 -61 91 -66 93 -5 2 -25 -21 -44
-49z"/>
<path d="M2900 2914 c-14 -1 -101 -8 -195 -14 -236 -15 -406 -39 -660 -92
-132 -27 -135 -29 -99 -61 52 -46 299 -214 444 -302 85 -51 293 -165 302 -165
27 0 448 591 448 629 0 10 -165 14 -240 5z"/>
</g>
</svg>
