<svg id="Layer_1" data-name="Layer 1" xmlns="http://www.w3.org/2000/svg" width="19.7" height="82.1" viewBox="0 0 19.7 82.1">
  <title>main-menu</title>
  <path d="M42.5,19.1a9.5,9.5,0,0,1,2.9-7,9.5,9.5,0,0,1,7-2.9,9.7,9.7,0,0,1,7,2.9,9.4,9.4,0,0,1,2.8,7A9.4,9.4,0,0,1,59.4,26a9.3,9.3,0,0,1-7,2.9,9.1,9.1,0,0,1-7-2.9A9.4,9.4,0,0,1,42.5,19.1Zm9.9,21.3a9.9,9.9,0,0,0-9.9,9.9,9.8,9.8,0,0,0,2.9,7,9.4,9.4,0,0,0,7,2.8,9.6,9.6,0,0,0,7-2.8,9.7,9.7,0,0,0,2.8-7,9.4,9.4,0,0,0-2.8-7A9.7,9.7,0,0,0,52.4,40.4ZM42.5,81.5a9.7,9.7,0,0,1,2.9-7,9.5,9.5,0,0,1,7-2.9,9.9,9.9,0,1,1,0,19.7,9.4,9.4,0,0,1-7-2.8A9.7,9.7,0,0,1,42.5,81.5Z" transform="translate(-42.5 -9.2)"/>
</svg>
