<svg id="Layer_1" data-name="Layer 1" xmlns="http://www.w3.org/2000/svg" width="73.4" height="93.9" viewBox="0 0 73.4 93.9">
  <title>access</title>
  <path d="M42,87.4a16.9,16.9,0,0,0,10.3-3.1l7.1,7.3a25.7,25.7,0,0,1-14.9,5.9,27.1,27.1,0,0,1-15-2.8,29.3,29.3,0,0,1-11.6-9.9,28.3,28.3,0,0,1-4.5-15.7,27.9,27.9,0,0,1,6-17.5l7.4,7.2a17.4,17.4,0,0,0-3.1,12.6,18.4,18.4,0,0,0,6.1,11.4A17.2,17.2,0,0,0,42,87.4ZM86.7,50.7a5.1,5.1,0,0,0-1.5-4.4,5,5,0,0,0-4.3-1.6L61.4,45.8,72.1,33.5a6.1,6.1,0,0,0,1.5-5.2A6.5,6.5,0,0,0,71,23.9L45.5,9.1a5.7,5.7,0,0,0-6.6.5L26.4,20.8a5.3,5.3,0,0,0-1.8,5.4,5.9,5.9,0,0,0,3.7,4.1,5.1,5.1,0,0,0,5.6-1.2l9.4-8.5,7.9,4.6L37.2,41a28.8,28.8,0,0,0-14.8,7.3l7.1,7.2A18.1,18.1,0,0,1,42,50.7a16.7,16.7,0,0,1,12.8,5.5,18.4,18.4,0,0,1,5.4,12.3,17.2,17.2,0,0,1-4.6,13l7.1,7.2a26.1,26.1,0,0,0,5.7-8.9,29.3,29.3,0,0,0,2-10.6,28.4,28.4,0,0,0-2.9-12.6l7.5-.4L73.2,78.6a5.2,5.2,0,0,0,2.4,5.1,5.9,5.9,0,0,0,5.6.5,5.5,5.5,0,0,0,3.2-4.7ZM74.8,22.5a9.4,9.4,0,0,1-6.6-2.8,9,9,0,0,1-2.7-6.6,9,9,0,0,1,2.7-6.6,9.4,9.4,0,0,1,6.6-2.8,9.1,9.1,0,0,1,6.6,2.8,8.7,8.7,0,0,1,2.8,6.6,8.7,8.7,0,0,1-2.8,6.6A9.1,9.1,0,0,1,74.8,22.5Z" transform="translate(-13.4 -3.7)"/>
</svg>
