<?xml version="1.0" encoding="utf-8"?>
<!-- Generator: Adobe Illustrator 22.1.0, SVG Export Plug-In . SVG Version: 6.00 Build 0)  -->
<svg version="1.1" id="Layer_1" xmlns="http://www.w3.org/2000/svg" xmlns:xlink="http://www.w3.org/1999/xlink" x="0px" y="0px"
	 width="100px" height="100px" viewBox="0 0 100 100" style="enable-background:new 0 0 100 100;" xml:space="preserve">
<g>
	<path d="M42,87.4c3.7,0.1,7.1-0.9,10.3-3.1l7.2,7.3c-4.4,3.5-9.4,5.5-14.9,5.9c-5.3,0.5-10.3-0.4-15-2.8s-8.6-5.6-11.6-9.9
		c-3.1-4.6-4.6-9.9-4.6-15.8c0-6.5,2-12.3,6.1-17.4l7.3,7.2c-2.7,3.9-3.7,8.1-3,12.7s2.7,8.3,6.1,11.4C33.1,85.9,37.2,87.4,42,87.4z
		 M86.7,50.7c0.1-1.7-0.4-3.2-1.6-4.4c-1.2-1.2-2.6-1.8-4.3-1.7l-19.4,1.1l10.6-12.3c1.3-1.5,1.9-3.2,1.6-5.1
		c-0.3-2-1.2-3.4-2.7-4.4L45.5,9.1c-1.1-0.6-2.3-0.9-3.5-0.7c-1.2,0.1-2.3,0.6-3.1,1.3L26.4,20.8c-1.7,1.6-2.3,3.4-1.7,5.4
		c0.6,2,1.8,3.4,3.7,4.1c1.9,0.7,3.8,0.3,5.6-1.3l9.4-8.4l7.9,4.6L37.2,41c-5.6,1-10.6,3.4-14.9,7.3l7.2,7.2
		c3.5-3.2,7.7-4.8,12.5-4.8c5.1,0,9.4,1.8,12.8,5.5c3.3,3.3,5.1,7.4,5.4,12.3c0.3,4.9-1.3,9.2-4.7,13l7.2,7.2
		c2.4-2.6,4.3-5.5,5.7-8.9c1.3-3.4,2-6.9,2-10.5c0-4.5-1-8.7-2.9-12.7l7.5-0.4l-1.8,22.4c-0.1,2.3,0.7,4,2.5,5.1
		c1.8,1.1,3.6,1.3,5.5,0.5c1.9-0.8,3-2.4,3.2-4.7L86.7,50.7z M74.8,22.5c-2.6,0-4.8-0.9-6.6-2.8c-1.8-1.8-2.8-4-2.8-6.6
		c0-2.6,0.9-4.8,2.8-6.6c1.8-1.8,4-2.8,6.6-2.8c2.6,0,4.8,0.9,6.6,2.8c1.8,1.8,2.8,4,2.8,6.6c0,2.6-0.9,4.8-2.8,6.6
		C79.6,21.5,77.4,22.5,74.8,22.5z"/>
</g>
<g>
</g>
<g>
</g>
<g>
</g>
<g>
</g>
<g>
</g>
</svg>
