<svg id="Layer_1" data-name="Layer 1" xmlns="http://www.w3.org/2000/svg" width="87.1" height="86.3" viewBox="0 0 87.1 86.3">
  <defs>
    <style>
      .cls-1 {
        isolation: isolate;
      }
    </style>
  </defs>
  <title>amazon</title>
  <g class="cls-1">
    <path d="M78.7,86.4a64.7,64.7,0,0,1-11.8,5.8,57.8,57.8,0,0,1-18.2,2.9,49.3,49.3,0,0,1-19-3.9,55.8,55.8,0,0,1-14.4-8.1,49.2,49.2,0,0,1-8.4-7.5c-.7-.6-.8-1.1-.4-1.5s.8-.4,1.4,0l.8.4a123.4,123.4,0,0,0,17.6,8.8,62.9,62.9,0,0,0,24.3,4.4c10.2-.1,20.9-2.7,32.1-7.9.8-.3,1.4-.3,1.7.2s.1,1.3-.7,2.2A27.4,27.4,0,0,1,78.7,86.4ZM35.8,38c-8.9,3.9-13.3,10-13.3,18.5,0,5,1.5,9.1,4.4,12.2a17.4,17.4,0,0,0,10.5,5.1,24.5,24.5,0,0,0,12.5-1.6,18.2,18.2,0,0,0,9.3-7.4c1,1.4,4,4.4,9.1,9.1L79.7,63.1l-1.6-1.4a21.5,21.5,0,0,1-3.2-3.8,9.2,9.2,0,0,1-1.6-5V24.5a12.2,12.2,0,0,0-2-6.1,16.6,16.6,0,0,0-6.8-6.6A29.4,29.4,0,0,0,50.6,8.7,33.7,33.7,0,0,0,36,11.8a24.3,24.3,0,0,0-9.1,7.5,16.9,16.9,0,0,0-3.2,9.5l14.9,1.3a13.4,13.4,0,0,1,6.6-8.3,10.1,10.1,0,0,1,4.2-1.1c2.3,0,3.9.4,4.9,1.2a6.1,6.1,0,0,1,1.9,4,19.5,19.5,0,0,1,.2,5.8V34A55.9,55.9,0,0,0,35.8,38Zm18,21a7.2,7.2,0,0,1-5.7,2.8,8.2,8.2,0,0,1-6-2.1A7.2,7.2,0,0,1,39.6,54c0-4.1,1.9-7,5.8-8.8s6.6-2.2,11-2.4v7.8C56.4,54.3,55.6,57.1,53.8,59ZM87.5,88.5c-.5.5-.9.7-1.3.5s-.3-.6-.1-1.3a19.3,19.3,0,0,0,2-5c1-2.9,1.2-4.8.6-5.6s-3.8-1-9-.5l-3,.2-.4-.2c-.3-.5.5-1.2,2.3-2a21.9,21.9,0,0,1,5.3-1.4,25.3,25.3,0,0,1,5.5,0c2,.2,3.1.5,3.5,1.1s.5,1.6.2,3.3a15.5,15.5,0,0,1-1.4,4.9A15.9,15.9,0,0,1,87.5,88.5Z" transform="translate(-6.2 -8.7)"/>
  </g>
</svg>
